<?xml version="1.0" encoding="utf-8"?>
<!-- Generator: Adobe Illustrator 21.0.0, SVG Export Plug-In . SVG Version: 6.00 Build 0)  -->
<svg version="1.1" id="图层_1" xmlns="http://www.w3.org/2000/svg" xmlns:xlink="http://www.w3.org/1999/xlink" x="0px" y="0px"
	 viewBox="0 0 48 48" style="enable-background:new 0 0 48 48;" xml:space="preserve">
<style type="text/css">
	.st0{fill:#040000;}
</style>
<path class="st0" d="M24,2C11.8,2,2,11.8,2,24s9.8,22,22,22s22-9.8,22-22S36.2,2,24,2z M24,44C13,44,4,35,4,24S13,4,24,4s20,9,20,20
	S35,44,24,44z M34.7,16c-1.3-0.4-3.8-1.2-5-1.9c-2.5-1.2-3.5-2.1-4.4-2.8C24.9,11.1,24.5,11,24,11l0,0c-0.5,0-0.9,0.1-1.2,0.4
	c-0.9,0.7-1.9,1.5-4.4,2.8c-1.3,0.6-3.8,1.4-5,1.9c-0.8,0.3-1.3,1-1.3,1.9c0.2,2.6,0.9,7.9,2.5,11.1c1.9,3.7,6.6,6.6,8.5,7.7
	c0.3,0.2,0.6,0.3,0.9,0.3s0.6-0.1,0.9-0.3c1.9-1.1,6.6-4,8.5-7.7c1.6-3.2,2.3-8.5,2.5-11.1C36.1,17,35.5,16.3,34.7,16z M32.6,28.5
	c-1.2,2.4-4,4.8-8.1,7.3C24.3,36,24.2,36,24,36s-0.3,0-0.4-0.1c-4.2-2.5-6.9-5-8.1-7.3c-1.7-3.3-2.3-9.1-2.4-10.8
	c0-0.4,0.3-0.7,0.6-0.8l0.5-0.2c1.4-0.5,3.5-1.2,4.7-1.8c2.3-1.1,3.3-1.9,4.2-2.6c0.1-0.1,0.2-0.2,0.4-0.3c0.1-0.1,0.4-0.2,0.6-0.2
	H24c0.2,0,0.5,0.1,0.6,0.2c0.1,0.1,0.2,0.2,0.4,0.3c0.9,0.7,1.9,1.5,4.2,2.6c1.2,0.6,3.3,1.3,4.7,1.8l0.5,0.2
	c0.3,0.1,0.6,0.4,0.6,0.8C34.9,19.5,34.3,25.2,32.6,28.5z"/>
</svg>
